<svg aria-hidden="true" style="position: absolute; width: 0; height: 0; overflow: hidden;" version="1.1"
    xmlns="http://www.w3.org/2000/svg" xmlns:xlink="http://www.w3.org/1999/xlink">
    <defs>
        <symbol id="icon-cross" viewBox="0 0 32 32">
            <path stroke-linejoin="miter" stroke-linecap="round" stroke-miterlimit="4" stroke-width="1.3333"
                d="M8 8l16 16M24 8l-16 16"></path>
        </symbol>
        <symbol id="icon-shevron-left" viewBox="0 0 16 32">
            <path
                d="M2.457 15.052l7.543-7.543 1.885 1.885-6.6 6.6 6.6 6.6-1.885 1.885-7.543-7.543c-0.25-0.25-0.39-0.589-0.39-0.943s0.14-0.693 0.39-0.943z">
            </path>
        </symbol>
        <symbol id="icon-twitter" viewBox="0 0 32 32">
            <path stroke-linejoin="round" stroke-linecap="round" stroke-miterlimit="4" stroke-width="2.6667"
                d="M26.52 9.787c-0.12 0.44-0.653 1.547-1.56 2.6-0.6 11.573-11.827 15.333-19.52 11.453-1.053-1.4 3.8-0.827 5.573-3.507-6.707-3.427-6.173-12.587-4.827-12.213 3.16 4.253 8.253 4.64 9.080 4.253 0-0.973-0.413-3.093 1.88-4.867 1.32-0.947 4.080-1.787 6.573 0.92 0.427 0.28 1.040 0.4 1.96 0.2 0.547-0.28 1.267-0.093 0.893 0.88l-0.053 0.28z">
            </path>
        </symbol>
        <symbol id="icon-pinterest" viewBox="0 0 32 32">
            <path
                d="M16 2.667c-7.364 0-13.333 5.969-13.333 13.333s5.969 13.333 13.333 13.333c7.364 0 13.333-5.969 13.333-13.333s-5.969-13.333-13.333-13.333zM5.333 16c0-2.22 0.694-4.384 1.983-6.192s3.11-3.167 5.209-3.891c2.099-0.723 4.371-0.774 6.5-0.144s4.008 1.908 5.376 3.656c1.368 1.748 2.156 3.88 2.255 6.098s-0.497 4.411-1.704 6.274c-1.207 1.863-2.965 3.303-5.030 4.12s-4.332 0.968-6.487 0.435l0.957-4.499c0.916 0.795 2.053 1.097 3.145 1.077 1.197-0.023 2.4-0.427 3.407-1.060 1.003-0.631 1.899-1.547 2.389-2.676 0.53-1.217 0.749-2.548 0.637-3.871s-0.552-2.598-1.28-3.708c-0.728-1.111-1.721-2.023-2.889-2.654s-2.475-0.962-3.803-0.962c-1.328 0-2.635 0.331-3.803 0.962s-2.161 1.544-2.888 2.655c-0.728 1.111-1.167 2.386-1.279 3.709s0.107 2.653 0.638 3.871c0.066 0.166 0.165 0.316 0.291 0.443s0.276 0.227 0.441 0.295c0.165 0.068 0.342 0.102 0.521 0.1s0.355-0.040 0.518-0.111c0.164-0.071 0.311-0.175 0.434-0.305s0.218-0.282 0.281-0.45c0.063-0.167 0.091-0.345 0.084-0.524s-0.051-0.353-0.127-0.515c-0.316-0.727-0.466-1.514-0.44-2.306s0.229-1.568 0.593-2.272c0.364-0.704 0.88-1.318 1.511-1.797s1.361-0.812 2.136-0.974c0.776-0.162 1.577-0.149 2.347 0.038s1.489 0.543 2.104 1.042c0.615 0.499 1.111 1.13 1.452 1.845s0.518 1.497 0.519 2.29c0 1.46-0.547 2.823-1.809 3.617-0.651 0.411-1.385 0.64-2.035 0.651-0.636 0.013-1.123-0.179-1.46-0.532-0.331-0.347-0.695-1.016-0.695-2.269 0-0.8 0.305-1.467 0.671-3.189 0.040-0.172 0.044-0.351 0.014-0.525s-0.095-0.341-0.19-0.49c-0.095-0.149-0.219-0.278-0.364-0.379s-0.309-0.172-0.482-0.208c-0.173-0.037-0.352-0.039-0.525-0.006s-0.339 0.1-0.487 0.198-0.274 0.223-0.373 0.37c-0.099 0.147-0.167 0.312-0.201 0.486l-2.48 11.657c-1.689-0.916-3.1-2.271-4.083-3.922s-1.502-3.537-1.501-5.458z">
            </path>
        </symbol>
        <symbol id="icon-instagram" viewBox="0 0 32 32">
            <path
                d="M10.4 2.667h11.2c4.267 0 7.733 3.467 7.733 7.733v11.2c0 2.051-0.815 4.018-2.265 5.468s-3.417 2.265-5.468 2.265h-11.2c-4.267 0-7.733-3.467-7.733-7.733v-11.2c0-2.051 0.815-4.018 2.265-5.468s3.417-2.265 5.468-2.265zM10.133 5.333c-1.273 0-2.494 0.506-3.394 1.406s-1.406 2.121-1.406 3.394v11.733c0 2.653 2.147 4.8 4.8 4.8h11.733c1.273 0 2.494-0.506 3.394-1.406s1.406-2.121 1.406-3.394v-11.733c0-2.653-2.147-4.8-4.8-4.8h-11.733zM23 7.333c0.442 0 0.866 0.176 1.179 0.488s0.488 0.736 0.488 1.178c0 0.442-0.176 0.866-0.488 1.178s-0.737 0.488-1.179 0.488c-0.442 0-0.866-0.176-1.179-0.488s-0.488-0.736-0.488-1.178c0-0.442 0.176-0.866 0.488-1.178s0.737-0.488 1.179-0.488zM16 9.333c1.768 0 3.464 0.702 4.714 1.953s1.953 2.946 1.953 4.714-0.702 3.464-1.953 4.714c-1.25 1.25-2.946 1.953-4.714 1.953s-3.464-0.702-4.714-1.953c-1.25-1.25-1.953-2.946-1.953-4.714s0.702-3.464 1.953-4.714c1.25-1.25 2.946-1.953 4.714-1.953zM16 12c-1.061 0-2.078 0.421-2.828 1.172s-1.172 1.768-1.172 2.828c0 1.061 0.421 2.078 1.172 2.828s1.768 1.172 2.828 1.172c1.061 0 2.078-0.421 2.828-1.172s1.172-1.768 1.172-2.828c0-1.061-0.421-2.078-1.172-2.828s-1.768-1.172-2.828-1.172z">
            </path>
        </symbol>
        <symbol id="icon-shevron-down" viewBox="0 0 64 32">
            <path
                d="M30.104 27.085l-15.085-15.085 3.771-3.771 13.2 13.2 13.2-13.2 3.771 3.771-15.085 15.085c-0.5 0.5-1.178 0.781-1.885 0.781s-1.385-0.281-1.885-0.781z">
            </path>
        </symbol>
        <symbol id="icon-stars-rating" viewBox="0 0 224 32">
            <path
                d="M15.999 26.808l-7.756 4.892c-0.343 0.228-0.701 0.326-1.075 0.293s-0.701-0.163-0.981-0.391-0.498-0.513-0.654-0.855c-0.156-0.342-0.187-0.725-0.093-1.151l2.056-9.246-6.868-6.213c-0.311-0.294-0.506-0.628-0.583-1.004s-0.054-0.742 0.069-1.1c0.123-0.357 0.31-0.651 0.561-0.881s0.593-0.376 1.028-0.44l9.064-0.832 3.504-8.708c0.156-0.391 0.397-0.685 0.725-0.881s0.662-0.294 1.004-0.294c0.341 0 0.676 0.098 1.004 0.294s0.569 0.489 0.725 0.881l3.504 8.708 9.064 0.832c0.436 0.065 0.779 0.212 1.028 0.44s0.436 0.522 0.561 0.881c0.125 0.359 0.148 0.726 0.071 1.102s-0.272 0.71-0.585 1.002l-6.868 6.213 2.056 9.246c0.093 0.424 0.062 0.808-0.093 1.151s-0.374 0.628-0.654 0.855-0.607 0.357-0.981 0.391c-0.374 0.034-0.732-0.064-1.075-0.293l-7.756-4.892z">
            </path>
            <path
                d="M63.999 26.808l-7.756 4.892c-0.343 0.228-0.701 0.326-1.075 0.293s-0.701-0.163-0.981-0.391c-0.281-0.228-0.498-0.513-0.654-0.855s-0.187-0.725-0.094-1.151l2.056-9.246-6.868-6.213c-0.311-0.294-0.506-0.628-0.583-1.004s-0.054-0.742 0.069-1.1c0.123-0.357 0.31-0.651 0.561-0.881s0.593-0.376 1.028-0.44l9.064-0.832 3.504-8.708c0.156-0.391 0.398-0.685 0.725-0.881s0.662-0.294 1.003-0.294 0.676 0.098 1.003 0.294c0.328 0.196 0.57 0.489 0.725 0.881l3.504 8.708 9.064 0.832c0.436 0.065 0.779 0.212 1.028 0.44s0.436 0.522 0.561 0.881c0.125 0.359 0.148 0.726 0.071 1.102s-0.272 0.71-0.585 1.002l-6.868 6.213 2.056 9.246c0.093 0.424 0.062 0.808-0.094 1.151s-0.374 0.628-0.654 0.855c-0.28 0.227-0.607 0.357-0.981 0.391s-0.732-0.064-1.075-0.293l-7.756-4.892z">
            </path>
            <path
                d="M111.999 26.808l-7.756 4.892c-0.343 0.228-0.701 0.326-1.075 0.293s-0.701-0.163-0.981-0.391c-0.281-0.228-0.498-0.513-0.654-0.855s-0.187-0.725-0.094-1.151l2.056-9.246-6.868-6.213c-0.311-0.294-0.506-0.628-0.583-1.004s-0.054-0.742 0.069-1.1c0.123-0.357 0.31-0.651 0.561-0.881s0.593-0.376 1.028-0.44l9.064-0.832 3.504-8.708c0.156-0.391 0.398-0.685 0.725-0.881s0.662-0.294 1.003-0.294 0.676 0.098 1.003 0.294c0.328 0.196 0.57 0.489 0.725 0.881l3.504 8.708 9.064 0.832c0.436 0.065 0.779 0.212 1.028 0.44s0.436 0.522 0.561 0.881c0.125 0.359 0.148 0.726 0.071 1.102s-0.272 0.71-0.585 1.002l-6.868 6.213 2.056 9.246c0.093 0.424 0.062 0.808-0.094 1.151s-0.374 0.628-0.654 0.855c-0.28 0.227-0.607 0.357-0.981 0.391s-0.732-0.064-1.075-0.293l-7.756-4.892z">
            </path>
            <path
                d="M159.999 26.808l-7.756 4.892c-0.343 0.228-0.701 0.326-1.075 0.293s-0.701-0.163-0.981-0.391c-0.281-0.228-0.498-0.513-0.654-0.855s-0.187-0.725-0.094-1.151l2.056-9.246-6.868-6.213c-0.311-0.294-0.506-0.628-0.583-1.004s-0.054-0.742 0.069-1.1c0.123-0.357 0.31-0.651 0.561-0.881s0.593-0.376 1.028-0.44l9.064-0.832 3.504-8.708c0.156-0.391 0.398-0.685 0.725-0.881s0.662-0.294 1.003-0.294 0.676 0.098 1.003 0.294c0.328 0.196 0.57 0.489 0.725 0.881l3.504 8.708 9.064 0.832c0.436 0.065 0.779 0.212 1.028 0.44s0.436 0.522 0.561 0.881c0.125 0.359 0.148 0.726 0.071 1.102s-0.272 0.71-0.585 1.002l-6.868 6.213 2.056 9.246c0.093 0.424 0.062 0.808-0.094 1.151s-0.374 0.628-0.654 0.855c-0.28 0.227-0.607 0.357-0.981 0.391s-0.732-0.064-1.075-0.293l-7.756-4.892z">
            </path>
            <path
                d="M207.999 26.808l-7.756 4.892c-0.343 0.228-0.701 0.326-1.075 0.293s-0.701-0.163-0.981-0.391c-0.281-0.228-0.498-0.513-0.654-0.855s-0.187-0.725-0.094-1.151l2.056-9.246-6.868-6.213c-0.311-0.294-0.506-0.628-0.583-1.004s-0.054-0.742 0.069-1.1c0.123-0.357 0.31-0.651 0.561-0.881s0.593-0.376 1.028-0.44l9.064-0.832 3.504-8.708c0.156-0.391 0.398-0.685 0.725-0.881s0.662-0.294 1.003-0.294 0.676 0.098 1.003 0.294c0.328 0.196 0.57 0.489 0.725 0.881l3.504 8.708 9.064 0.832c0.436 0.065 0.779 0.212 1.028 0.44s0.436 0.522 0.561 0.881c0.125 0.359 0.148 0.726 0.071 1.102s-0.272 0.71-0.585 1.002l-6.868 6.213 2.056 9.246c0.093 0.424 0.062 0.808-0.094 1.151s-0.374 0.628-0.654 0.855c-0.28 0.227-0.607 0.357-0.981 0.391s-0.732-0.064-1.075-0.293l-7.756-4.892z">
            </path>
        </symbol>
        <symbol id="icon-brush" viewBox="0 0 32 32">
            <path
                d="M10.667 5.333c0-0.707 0.281-1.386 0.781-1.886s1.178-0.781 1.886-0.781h5.333c0.707 0 1.386 0.281 1.886 0.781s0.781 1.178 0.781 1.886v6.667h5.333c0.707 0 1.386 0.281 1.886 0.781s0.781 1.178 0.781 1.886v12c0 0.707-0.281 1.386-0.781 1.886s-1.178 0.781-1.886 0.781h-21.333c-0.707 0-1.386-0.281-1.886-0.781s-0.781-1.178-0.781-1.886v-12c0-0.707 0.281-1.386 0.781-1.886s1.178-0.781 1.886-0.781h5.333v-6.667zM18.667 5.333h-5.333v6.667c0 0.707-0.281 1.386-0.781 1.886s-1.178 0.781-1.886 0.781h-5.333v2.667h21.333v-2.667h-5.333c-0.707 0-1.386-0.281-1.886-0.781s-0.781-1.178-0.781-1.886v-6.667zM26.667 20h-21.333v6.667h2.667v-2.667c0-0.354 0.14-0.693 0.391-0.943s0.589-0.39 0.943-0.39c0.354 0 0.693 0.14 0.943 0.39s0.39 0.589 0.39 0.943v2.667h4v-2.667c0-0.354 0.14-0.693 0.39-0.943s0.589-0.39 0.943-0.39c0.354 0 0.693 0.14 0.943 0.39s0.39 0.589 0.39 0.943v2.667h4v-2.667c0-0.354 0.14-0.693 0.39-0.943s0.589-0.39 0.943-0.39c0.354 0 0.693 0.14 0.943 0.39s0.39 0.589 0.39 0.943v2.667h2.667v-6.667z">
            </path>
        </symbol>
        <symbol id="icon-arrows" viewBox="0 0 36 32">
            <path
                d="M29.412 23.413l6-6c0.781-0.781 0.781-2.050 0-2.831l-6-6c-0.781-0.781-2.050-0.781-2.831 0s-0.781 2.050 0 2.831l2.587 2.588h-22.344l2.588-2.588c0.781-0.781 0.781-2.050 0-2.831s-2.050-0.781-2.831 0l-6 6c-0.375 0.375-0.588 0.881-0.588 1.412s0.212 1.038 0.588 1.413l6 6c0.781 0.781 2.050 0.781 2.831 0s0.781-2.050 0-2.831l-2.588-2.587h22.344l-2.587 2.587c-0.781 0.781-0.781 2.050 0 2.831s2.050 0.781 2.831 0v0.006z">
            </path>
        </symbol>
        <symbol id="icon-idea" viewBox="0 0 32 32">
            <path stroke-linejoin="round" stroke-linecap="round" stroke-miterlimit="4" stroke-width="1"
                d="M25.333 12.827c0 3.44-1.693 6.087-4.269 7.829-0.6 0.405-0.9 0.608-1.048 0.84-0.147 0.229-0.199 0.533-0.299 1.139l-0.080 0.471c-0.176 1.064-0.265 1.596-0.639 1.912s-0.912 0.316-1.991 0.316h-3.483c-1.079 0-1.617 0-1.991-0.316s-0.461-0.848-0.64-1.912l-0.077-0.471c-0.101-0.604-0.151-0.907-0.297-1.136s-0.448-0.435-1.049-0.845c-2.548-1.743-4.137-4.388-4.137-7.827 0-5.609 4.477-10.16 10-10.16 0.672-0.001 1.342 0.067 2 0.203">
            </path>
            <path stroke-linejoin="round" stroke-linecap="round" stroke-miterlimit="4" stroke-width="1"
                d="M18 25.333v1.333c0 1.257 0 1.885-0.391 2.276s-1.019 0.391-2.276 0.391c-1.257 0-1.885 0-2.276-0.391s-0.391-1.019-0.391-2.276v-1.333M22 2.667l0.344 0.929c0.451 1.219 0.676 1.828 1.12 2.272 0.445 0.445 1.055 0.671 2.273 1.121l0.929 0.344-0.929 0.344c-1.219 0.451-1.828 0.676-2.272 1.12-0.445 0.445-0.671 1.055-1.121 2.273l-0.344 0.929-0.344-0.929c-0.451-1.219-0.676-1.828-1.12-2.272-0.445-0.445-1.055-0.671-2.273-1.121l-0.929-0.344 0.929-0.344c1.219-0.451 1.828-0.676 2.272-1.12 0.445-0.445 0.671-1.055 1.121-2.273l0.344-0.929z">
            </path>
        </symbol>
        <symbol id="icon-mobile-menu" viewBox="0 0 32 32">
            <path
                d="M5.333 24c-0.378 0-0.694-0.128-0.949-0.384s-0.383-0.572-0.384-0.949c-0.001-0.377 0.127-0.693 0.384-0.949s0.573-0.384 0.949-0.384h21.333c0.378 0 0.695 0.128 0.951 0.384s0.384 0.572 0.383 0.949c-0.001 0.377-0.129 0.694-0.384 0.951s-0.572 0.384-0.949 0.383h-21.333zM5.333 17.333c-0.378 0-0.694-0.128-0.949-0.384s-0.383-0.572-0.384-0.949c-0.001-0.377 0.127-0.693 0.384-0.949s0.573-0.384 0.949-0.384h21.333c0.378 0 0.695 0.128 0.951 0.384s0.384 0.572 0.383 0.949c-0.001 0.377-0.129 0.694-0.384 0.951s-0.572 0.384-0.949 0.383h-21.333zM5.333 10.667c-0.378 0-0.694-0.128-0.949-0.384s-0.383-0.572-0.384-0.949c-0.001-0.377 0.127-0.693 0.384-0.949s0.573-0.384 0.949-0.384h21.333c0.378 0 0.695 0.128 0.951 0.384s0.384 0.572 0.383 0.949c-0.001 0.377-0.129 0.694-0.384 0.951s-0.572 0.384-0.949 0.383h-21.333z">
            </path>
        </symbol>
    </defs>
</svg>